<?xml version="1.0" encoding="UTF-8"?>
<svg id="Layer_2" xmlns="http://www.w3.org/2000/svg" version="1.1" viewBox="0 0 323.67 148.16">
  <!-- Generator: Adobe Illustrator 30.1.0, SVG Export Plug-In . SVG Version: 2.1.1 Build 136)  -->
  <defs>
    <style>
      .st0 {
        fill: #fff;
      }
    </style>
  </defs>
  <g id="Layer_1-2">
    <g>
      <path class="st0" d="M74.32,35c-2.64-4.17-3.99-6.25-6.72-10.38.73,4.9,1.12,7.34,1.95,12.21-1.56.61-2.34.93-3.89,1.57-4.43-6.38-6.7-9.54-11.35-15.79,1.6-.69,2.4-1.03,4-1.69,2.63,3.84,3.93,5.78,6.49,9.66-.75-4.61-1.11-6.92-1.78-11.56,1.7-.67,2.55-.99,4.26-1.63,2.52,3.92,3.76,5.9,6.21,9.86-.62-4.62-.91-6.94-1.45-11.58,1.62-.57,2.43-.85,4.05-1.39.75,7.75,1.18,11.61,2.17,19.31-1.58.56-2.36.84-3.93,1.42h-.01Z"/>
      <path class="st0" d="M83.4,11.93c5.41-1.64,8.13-2.39,13.59-3.75.33,1.35.5,2.02.83,3.37-3.68.91-5.51,1.4-9.16,2.44.43,1.49.64,2.24,1.06,3.73,2.62-.75,3.94-1.11,6.58-1.79.35,1.34.52,2.01.87,3.36-2.6.68-3.9,1.04-6.49,1.79.51,1.79.77,2.69,1.28,4.49,3.61-1.03,5.42-1.51,9.06-2.41.33,1.35.5,2.02.83,3.37-5.21,1.28-7.8,2-12.95,3.56-2.2-7.26-3.31-10.89-5.51-18.15h0Z"/>
      <path class="st0" d="M105.12,6.3c1.75-.38,2.63-.56,4.38-.91,1.21,6.08,1.81,9.12,3.02,15.2,3.27-.65,4.91-.95,8.19-1.49.23,1.37.34,2.05.56,3.42-4.88.81-7.32,1.27-12.16,2.31-1.6-7.42-2.4-11.12-4-18.54h.01Z"/>
      <path class="st0" d="M134.9,20.91c-1.45.16-2.71.04-3.77-.38-1.07-.41-1.97-1.03-2.7-1.85-.73-.82-1.31-1.79-1.74-2.9s-.74-2.29-.92-3.54c-.17-1.23-.21-2.44-.09-3.64.12-1.2.44-2.3.96-3.28.53-.99,1.29-1.82,2.3-2.5,1-.67,2.29-1.1,3.86-1.27,1.69-.19,3.22.02,4.57.6.68.29,1.29.75,1.82,1.39.53.64,1.01,1.49,1.45,2.56-1.57.49-2.36.74-3.92,1.25-.37-.75-.83-1.35-1.4-1.81-.57-.45-1.33-.63-2.28-.53-.55.06-1.02.22-1.41.48-.39.26-.7.58-.93.96s-.41.8-.53,1.27c-.12.46-.19.93-.23,1.41-.03.48-.03.95,0,1.41s.07.88.12,1.26c.25,2.02.78,3.52,1.5,4.48.69.91,1.67,1.33,2.97,1.18.51-.06.93-.17,1.28-.34s.64-.4.88-.67.45-.59.63-.95c.18-.36.34-.75.5-1.18,1.63.24,2.45.37,4.07.64-.31,1-.67,1.83-1.08,2.51s-.9,1.25-1.47,1.72c-1.12.94-2.59,1.51-4.42,1.71h-.02Z"/>
      <path class="st0" d="M156.09,19.48c-1.51.04-2.79-.17-3.85-.65-1.06-.47-1.95-1.14-2.65-2-.7-.86-1.24-1.87-1.59-3.03-.36-1.16-.58-2.4-.66-3.7-.08-1.31,0-2.56.23-3.75.23-1.2.67-2.26,1.32-3.19.65-.93,1.52-1.67,2.61-2.24,1.09-.56,2.46-.87,4.08-.91,1.62-.04,3,.2,4.11.7,1.11.51,2.02,1.21,2.71,2.1.69.89,1.18,1.93,1.48,3.11s.44,2.43.43,3.74c-.02,3.08-.76,5.45-2.15,7.13-1.42,1.72-3.43,2.62-6.08,2.68h0ZM155.68,3.47c-1.5.04-2.56.6-3.19,1.64-.65,1.09-.94,2.68-.85,4.77s.5,3.65,1.21,4.69c.68.99,1.73,1.48,3.16,1.44,1.41-.04,2.42-.57,3.05-1.6.65-1.07.99-2.65.97-4.74s-.39-3.67-1.1-4.72c-.68-1.01-1.76-1.52-3.24-1.48h0Z"/>
      <path class="st0" d="M187.08,7.33c-2.06,5-3.05,7.51-4.95,12.55-1.26-.1-1.89-.14-3.15-.22-1.16-5.25-1.77-7.87-3.08-13.1-.26,5.15-.38,7.73-.64,12.88-1.48-.07-2.22-.1-3.7-.16.27-7.58.4-11.37.66-18.96,2.39.08,3.58.14,5.96.27,1.2,4.95,1.77,7.43,2.83,12.39,1.76-4.76,2.68-7.14,4.58-11.87,2.4.2,3.6.32,6,.57-.8,7.54-1.21,11.32-2.01,18.86-1.47-.16-2.21-.23-3.69-.37.47-5.15.71-7.72,1.18-12.87v.03Z"/>
      <path class="st0" d="M199.95,2.73c5.55.77,8.32,1.22,13.84,2.27-.26,1.36-.39,2.04-.65,3.41-3.71-.71-5.57-1.03-9.3-1.61-.24,1.53-.36,2.3-.59,3.83,2.68.41,4.02.64,6.69,1.12-.25,1.36-.37,2.05-.62,3.41-2.64-.47-3.96-.68-6.61-1.08-.29,1.84-.43,2.77-.71,4.61,3.69.57,5.53.89,9.2,1.59-.26,1.36-.39,2.04-.65,3.4-5.25-1.01-7.89-1.44-13.18-2.17,1.04-7.52,1.56-11.27,2.59-18.79h0Z"/>
      <path class="st0" d="M237.76,30.5c-1.6-.5-2.4-.74-4.01-1.21,1.74-5.95,2.6-8.93,4.34-14.88-2.02-.59-3.03-.87-5.05-1.42.36-1.34.54-2.01.91-3.35,5.85,1.58,8.75,2.46,14.53,4.37-.44,1.32-.65,1.97-1.09,3.29-2.01-.67-3.02-.99-5.04-1.61-1.83,5.92-2.75,8.88-4.59,14.81h0Z"/>
      <path class="st0" d="M255.68,37.07c-1.43-.56-2.54-1.27-3.35-2.13-.81-.86-1.37-1.82-1.7-2.89-.32-1.07-.42-2.21-.31-3.42s.4-2.44.84-3.67,1-2.35,1.69-3.36,1.51-1.81,2.48-2.41,2.07-.94,3.32-1.03c1.24-.09,2.64.17,4.18.78,1.54.61,2.73,1.37,3.58,2.28.84.91,1.42,1.92,1.72,3.01.3,1.1.36,2.25.17,3.46-.18,1.21-.54,2.41-1.06,3.61-1.22,2.82-2.85,4.71-4.81,5.71-2,1.02-4.24,1.04-6.75.05h0ZM261.55,22.17c-1.42-.56-2.64-.46-3.63.25-1.03.74-1.93,2.09-2.66,4.05-.74,1.96-.96,3.56-.7,4.79.25,1.18,1.04,2.05,2.39,2.58,1.34.53,2.5.43,3.49-.26,1.03-.73,1.96-2.05,2.76-3.98.8-1.93,1.07-3.53.82-4.78-.24-1.2-1.06-2.1-2.46-2.65h-.01Z"/>
    </g>
    <g>
      <path class="st0" d="M113.86,76.5c-.28,1.3-1.02,1.96-1.12,3.35,0,2.05-.56,2.33-1.68,3.63-.65.75-.93,1.77-1.49,2.61-1.21,1.77-2.98,4.1-5.21,5.12-3.73,1.77-5.31,2.14-9.41,2.23-.65,0-1.21,0-1.77.19-1.49.37-2.05.37-3.35.09-.93-.19-3.17-.19-3.73.09-2.05.93-2.23.84-4.1.09-2.14-.93-4.84.19-7.17-.37-3.54-.84-3.73-1.68-3.35-4.94.09-.75.09-1.49.19-2.23.19-1.12.19-1.21-.37-2.14-1.12-2.23-.19-2.98.09-5.12.09-1.4.47-2.42.19-3.91-.28-1.49-.37-1.96,0-3.35.28-1.12,0-2.33,0-3.35,0-.84-.28-1.58-.37-2.42-.09-2.14-.37-4.28.19-6.43.09-.47.09-.93.09-1.3,0-1.4-.37-2.42.09-3.91.19-.75.19-.84-.09-1.3-1.12-1.96.84-3.35,2.33-3.63,1.02-.19,2.14-.09,3.26-.28,1.58-.28,3.17.09,4.75.09,1.3,0,2.51.28,3.82,0,.56-.09,1.12-.19,1.68-.19.93,0,1.96.09,2.79.09,1.58,0,2.98-.09,4.47.28,1.96.56,3.63.19,5.59,1.12.84.37,1.58.56,2.42.84,2.14.47,2.51,1.12,4.1,2.42.75.56,1.3,1.49,2.05,2.14,1.86,1.49,1.68,1.49,2.23,3.54.28.84,1.3,1.77,1.68,2.79,1.12,2.61,1.58,6.15,1.58,8.85,0,.93.28,1.77.19,2.7-.09.84-.37,1.68-.56,2.61h-.01ZM102.78,68.59c-.28-.84-.37-1.68-.47-2.51-.19-1.4-.93-2.05-1.68-3.07-.84-1.21-1.58-2.14-2.79-2.79-.93-.56-1.21.28-2.7-.93-.65-.19-1.3,0-1.96,0-1.12-.09-2.24-.28-3.35-.19-1.21.19-3.35-.19-4.66-.19-1.49-.09-2.98-.19-3.26.56,0,.09,0,.37.09.75l.09.65c.19,1.12-.09,2.14,0,3.26.09,1.68.75,2.42.28,4.19-.37,1.21-.19,2.24-.28,3.45v2.51c0,1.58-.09,3.26,0,4.94,0,1.3.47,2.51.19,3.82,0,.09-.09.37-.19.65,3.07-.37,6.15.47,9.22.47.56-.09,4.1-.37,4.84-.56.47-.09,3.54-1.68,3.91-2.05.65-.65,2.24-5.03,2.7-6.24l.19-.28c-1.21-1.02.37-2.33.37-3.17,0-.09-.56-3.07-.56-3.26h.02ZM103.24,94.66c-1.02-.56-1.02-1.4-.56-2.33,1.3-2.42,3.91.09,3.45,1.49-.56,1.58-2.51,1.12-2.89.84Z"/>
      <path class="st0" d="M161.63,72.13c-.09.93-.28,1.77-.37,2.7-.09,2.05-.09,4.1-.65,6.05-.28,1.02-1.02,1.77-1.49,2.7-1.02,2.14-.75,2.33-2.89,3.91-.84.56-1.49,1.3-2.42,1.86-.84.56-1.4,1.4-2.42,1.86-1.21.65-2.61,1.02-3.91,1.58-2.61,1.21-8.1,1.49-11.08.75-1.4-.37-2.79-.56-4.1-1.12-1.96-.65-2.89-.37-4.47-2.05-.84-.84-1.96-1.58-2.89-2.42-.65-.65-3.17-3.54-3.72-4.47-1.21-2.14-1.4-2.14-1.77-4.75-.28-1.4-.47-3.07-.28-4.56.28-1.86-.47-2.42-.47-4-.09-.93.19-1.96.19-2.89-.09-.93,0-1.86,0-2.79,0-.84-.19-1.77-.19-2.7,0-1.86.19-3.73.28-5.59,0-1.58-.28-3.07,0-4.66.47-2.79,2.7-3.82,5.21-3.17,1.4.37,1.21.19,2.61.09.75,0,1.4.19,2.05,1.21.65.93.65,1.58.47,2.23-.19.47-.47.84-.47,1.3,0,1.02.28,1.86.28,2.79.09,1.4-.19,1.4-.19,2.79,0,1.02-.28,2.42.09,3.35.84,1.77.19,2.79.28,4.47,0,1.21-.09,1.21-.09,2.51.09.93-.47,2.33,0,3.17.93,2.05-.09,2.79,0,3.17.09.56,1.96,4.38,2.23,4.75.93,1.4,2.89,3.07,4.47,3.35,1.02.19,1.86.37,2.79.65,1.3.47,2.05,0,3.35-.19.37-.09,4.19-1.02,4.66-1.3,1.68-.84,1.68-.28,2.51-2.23.56-1.49,1.4-2.42,1.58-4.1.19-2.14.56-4.28.56-6.43,0-.84-.09-1.68-.09-2.51,0-.75-.28-1.58-.19-2.42,0-.84.19-1.68.19-2.51.09-2.51.19-5.12.19-7.64,0-1.49-.56-3.07-.09-4.66.93-2.79,4.38-2.05,6.61-1.96,1.58.09,2.33.65,3.07,2.23.84,1.58.74,3.91.56,5.49-.09,1.68,0,3.35-.09,5.03-.09.93-.19,1.86-.19,2.79v2.98c.09.84.37,1.77.37,2.61,0,.93-.09,1.86-.09,2.7v.05Z"/>
      <path class="st0" d="M209.12,76.5c-.28,1.3-1.02,1.96-1.12,3.35,0,2.05-.56,2.33-1.68,3.63-.65.75-.93,1.77-1.49,2.61-1.21,1.77-2.98,4.1-5.21,5.12-3.72,1.77-5.31,2.14-9.41,2.23-.65,0-1.21,0-1.77.19-1.49.37-2.05.37-3.35.09-.93-.19-3.17-.19-3.72.09-2.05.93-2.24.84-4.1.09-2.14-.93-4.84.19-7.17-.37-3.54-.84-3.72-1.68-3.35-4.94.09-.75.09-1.49.19-2.23.19-1.12.19-1.21-.37-2.14-1.12-2.23-.19-2.98.09-5.12.09-1.4.47-2.42.19-3.91-.28-1.49-.37-1.96,0-3.35.28-1.12,0-2.33,0-3.35,0-.84-.28-1.58-.37-2.42-.09-2.14-.37-4.28.19-6.43.09-.47.09-.93.09-1.3,0-1.4-.37-2.42.09-3.91.19-.75.19-.84-.09-1.3-1.12-1.96.84-3.35,2.33-3.63,1.02-.19,2.14-.09,3.26-.28,1.58-.28,3.17.09,4.75.09,1.3,0,2.51.28,3.82,0,.56-.09,1.12-.19,1.68-.19.93,0,1.96.09,2.79.09,1.58,0,2.98-.09,4.47.28,1.96.56,3.63.19,5.59,1.12.84.37,1.58.56,2.42.84,2.14.47,2.51,1.12,4.1,2.42.75.56,1.3,1.49,2.05,2.14,1.86,1.49,1.68,1.49,2.24,3.54.28.84,1.3,1.77,1.68,2.79,1.12,2.61,1.58,6.15,1.58,8.85,0,.93.28,1.77.19,2.7-.09.84-.37,1.68-.56,2.61h-.03ZM198.04,68.59c-.28-.84-.37-1.68-.47-2.51-.19-1.4-.93-2.05-1.68-3.07-.84-1.21-1.58-2.14-2.79-2.79-.93-.56-1.21.28-2.7-.93-.65-.19-1.3,0-1.96,0-1.12-.09-2.23-.28-3.35-.19-1.21.19-3.35-.19-4.66-.19-1.49-.09-2.98-.19-3.26.56,0,.09,0,.37.09.75l.09.65c.19,1.12-.09,2.14,0,3.26.09,1.68.75,2.42.28,4.19-.37,1.21-.19,2.24-.28,3.45v2.51c0,1.58-.09,3.26,0,4.94,0,1.3.47,2.51.19,3.82,0,.09-.09.37-.19.65,3.07-.37,6.15.47,9.22.47.56-.09,4.1-.37,4.84-.56.46-.09,3.54-1.68,3.91-2.05.65-.65,2.23-5.03,2.7-6.24l.19-.28c-1.21-1.02.37-2.33.37-3.17,0-.09-.56-3.07-.56-3.26h.02ZM198.51,94.66c-1.02-.56-1.02-1.4-.56-2.33,1.3-2.42,3.91.09,3.45,1.49-.56,1.58-2.51,1.12-2.89.84Z"/>
      <path class="st0" d="M252.05,93.45c-.93.37-2.05.37-2.98.28-1.4-.09-1.4,0-2.79,0s-2.7-.37-4.1-.09c-1.12.19-2.14.19-3.26,0-.93-.09-1.77-.19-2.51.09-2.61.84-3.35-.37-5.5-.19-.65.09-1.3.19-1.96.19-1.3,0-2.61,0-3.91.09-1.21.19-2.33.09-3.45-.09-1.12-.09-1.86,0-2.89.09-.28,0-.56.09-.93.19-1.58.47-3.17-.75-3.45-2.14-.19-.84-.37-1.4-.28-2.23.19-1.58.28-3.73,0-5.21-.28-1.49.19-2.89.09-4.28,0-1.12.19-2.51-.09-3.63-.56-1.86-.28-5.12-.28-7.17s-.37-7.54.28-9.5c.28-.93-.09-2.33-.09-3.35,0-.75-.37-1.4-.37-2.23,0-.56-.09-1.12,0-1.77.37-2.14,2.42-2.51,4.1-2.61,1.58,0,2.98-.47,4.56-.19.47.09.84.19,1.3.19h2.98c1.02,0,1.96-.47,3.07-.47.93,0,1.96.19,2.89.19s1.77-.19,2.61-.09c1.02,0,1.96.09,2.98.09,1.21,0,2.24.47,3.45.19,1.4-.37,1.96-.28,3.26.09.84.19,3.17.37,3.72.19.93-.28,1.68-.65,2.61-.19,2.14.93,1.77,3.73,1.86,5.59.09,1.02-.09,2.79-1.86,3.17-.84.19-1.86.19-2.7.28-1.3,0-2.7-.19-4-.19-.93,0-1.77.37-2.7.37s-1.77-.09-2.61-.09c-1.58,0-3.82-.47-5.31-.47-1.21.09-2.42.09-3.54.47-1.3.37-1.86.47-3.26.19-.37-.09-2.61-.37-2.7-.19-.37.37-.28,3.07-.19,3.63.19,1.12.28,1.86.19,3.07,0,.28-.19.09.37.19,1.12,0,2.24.19,3.26.37.47.09.93.19,1.4.19.93,0,1.96-.19,2.98-.28.84,0,1.77.09,2.7,0,2.05,0,3.82-.28,5.77.47,1.77.65,2.05,2.42,2.33,3.91.19,1.12.19,3.54-.84,4.38-1.12.84-2.23.75-3.54.93-2.05.28-4.19.56-6.24.65-1.02,0-2.05-.28-3.07-.28-1.21,0-2.42-.09-3.63.09-2.98.47-1.3,2.33-1.49,4.38l.28.65c.37,1.02.19,1.96,0,2.89.75-.09,1.49-.37,2.24-.37,1.12,0,2.14.28,3.17.28h3.07c1.02,0,2.05.09,2.98.09s1.77-.28,2.7-.28c1.02.09,1.96.19,2.98.19,1.49,0,2.89-.09,4.28.28,2.33.65,7.26-.93,7.92,2.23.09.65,0,1.3.28,1.96.28.84.65,1.58.37,2.51-.28,1.21-1.68,1.96-2.51,2.33v-.03Z"/>
      <path class="st0" d="M43.13,134.25c-.09.19-.19.47-.28.65-1.4,3.63-2.98,4.94-5.59,7.45-1.3,1.3-2.98,1.86-4.56,2.89-1.68,1.21-2.61,1.02-4.47,1.49-.74.19-5.21.65-5.96.65-2.33-.09-4.38-.93-6.61-1.21-1.96-.19-4.19-1.21-5.59-2.42-1.77-1.58-4-2.51-5.49-4.38-1.77-2.23-3.45-7.08-4-9.69-.19-.93.28-2.05.19-2.33-.47-1.68-.47-2.14-.37-4,0-.93-.47-1.68-.37-2.61.09-.93.65-1.68.84-2.61.19-1.02.93-4,1.49-5.03.74-1.68,3.07-4.84,4.66-6.33.47-.47,1.12-.93,1.77-1.21l.47-.19c.47-.19.84-.65,1.3-1.02,1.02-1.02,1.77-1.3,2.51-1.49.65-.09,1.4-.19,2.05-.56,1.49-.75,1.86-1.02,3.73-1.02,1.86-.09,3.73-.47,5.59-.19,1.3.19,2.61.19,4,.37.75.19,1.4-.19,2.33.09,1.02.37,1.86,1.12,2.89,1.58,1.96,1.02,2.89,1.49,4.47,3.26,1.12,1.21,2.14,1.77,3.07,3.35,1.02,1.68,2.51,3.17.65,5.12-1.77,1.86-5.4,3.82-7.92,2.05-.84-.56-1.49-1.4-2.14-2.14-.84-.93-1.86-1.86-2.7-2.98-.75-.93-1.4-.75-2.51-1.02-.65-.19-1.77-.75-2.51-.65-2.61,0-2.42,0-4.47,1.12-1.02.47-2.14.65-3.17,1.12-1.96,1.02-2.42,1.21-3.63,3.26-.65,1.12-1.12,3.45-1.4,4.75-.28,1.49-.09,3.17-.09,4.75.09.75-.37,1.58-.28,2.42.28,1.77,1.12,4.19,2.42,5.59.47.56,1.12,1.12,1.58,1.86,1.3,1.86,1.3,1.3,3.26,1.96.75.28,1.58.37,2.33.47.65,0,1.77.47,2.33.47,2.05-.19,2.42-.37,4-1.21,1.68-.93,3.17-.65,4.56-2.33.93-1.21.09-1.96,2.23-3.54.47-.28.84-.56,1.12-.93l.37-.56c.28-.37.93-1.02,2.05-1.02s3.91.65,4.94,1.21c1.86.93,2.05,2.61,1.3,4.19-.09.19-.28.37-.37.56h-.02Z"/>
      <path class="st0" d="M90.25,128.11c-.37,1.3.56,2.33-.19,3.82-.28.65-.65,1.12-.84,1.68-.75,2.33-1.96,4.28-3.26,6.33-1.4,2.14-5.03,4.94-7.26,5.96-1.49.56-2.89,1.02-4.47,1.4-1.96.56-2.7,1.3-4.84.56-1.21-.37-2.33.28-3.63.19-2.61-.28-2.89-.28-5.03-1.4-.47-.28-1.12-.37-1.68-.47-2.24-.37-3.91-1.77-5.4-3.35-.65-.65-1.49-1.12-2.05-1.86-.84-1.12-1.77-2.23-2.33-3.63-.84-2.14-1.4-3.91-1.96-6.24-.19-.75-.84-1.21-.93-2.23,0-.93,0-1.86-.19-2.79-.19-1.58-.56-3.17.09-4.75,1.12-3.26,1.12-6.61,3.26-9.68,1.58-2.42,2.23-3.45,4.56-5.31.84-.75,3.35-2.61,4.56-3.07.74-.37,1.58-.28,2.42-.56,1.58-.47,3.17-.84,4.94-.84.93.09,1.68.09,2.7-.09,2.51-.47,2.79.28,4.94.75,2.33.56,2.51-.28,4.75,1.4,1.21.93,2.51,1.49,3.72,2.42,2.33,1.68,4.1,3.82,5.4,6.33.93,1.77,1.68,1.96,1.96,4.28.28,2.14.75,4.28.84,6.43.19,1.68.56,2.33.09,4.1l-.19.65.02-.03ZM79.35,124.38c-.37-1.96-.56-3.91-1.12-5.77-.47-1.4-.09-1.86-1.3-2.89-.75-.65-1.4-1.4-2.23-1.86-1.12-.75-1.4-1.3-2.89-1.49-2.42-.28-4.75-1.21-7.08,0-2.51,1.3-3.35,1.86-4.84,4.1-1.77,2.61-1.21,3.35-2.05,5.96-.28,1.12,0,2.05.09,3.17,0,1.4.56,5.68,1.21,6.89.19.47,2.42,3.07,2.98,3.45,1.68,1.4,3.35,1.4,5.31,1.96,1.4.37,2.05,0,3.45-.19.84-.09,3.45-1.02,4.19-1.68.65-.65,1.12-1.77,1.77-2.42,1.58-1.77.93-1.58,1.58-3.54.28-.93,1.02-3.91,1.02-4.94,0-.19,0-.47-.09-.75h0Z"/>
      <path class="st0" d="M136.81,125.13c-.09.93-.28,1.77-.37,2.7-.09,2.05-.09,4.1-.65,6.05-.28,1.02-1.02,1.77-1.49,2.7-1.02,2.14-.75,2.33-2.89,3.91-.84.56-1.49,1.3-2.42,1.86-.84.56-1.4,1.4-2.42,1.86-1.21.65-2.61,1.02-3.91,1.58-2.61,1.21-8.1,1.49-11.08.75-1.4-.37-2.79-.56-4.1-1.12-1.96-.65-2.89-.37-4.47-2.05-.84-.84-1.96-1.58-2.89-2.42-.65-.65-3.17-3.54-3.72-4.47-1.21-2.14-1.4-2.14-1.77-4.75-.28-1.4-.47-3.07-.28-4.56.28-1.86-.47-2.42-.47-4-.09-.93.19-1.96.19-2.89-.09-.93,0-1.86,0-2.79,0-.84-.19-1.77-.19-2.7,0-1.86.19-3.73.28-5.59,0-1.58-.28-3.07,0-4.66.47-2.79,2.7-3.82,5.21-3.17,1.4.37,1.21.19,2.61.09.75,0,1.4.19,2.05,1.21.65.93.65,1.58.47,2.23-.19.47-.47.84-.47,1.3,0,1.02.28,1.86.28,2.79.09,1.4-.19,1.4-.19,2.79,0,1.02-.28,2.42.09,3.35.84,1.77.19,2.79.28,4.47,0,1.21-.09,1.21-.09,2.51.09.93-.47,2.33,0,3.17.93,2.05-.09,2.79,0,3.17.09.56,1.96,4.38,2.23,4.75.93,1.4,2.89,3.07,4.47,3.35,1.02.19,1.86.37,2.79.65,1.3.47,2.05,0,3.35-.19.37-.09,4.19-1.02,4.66-1.3,1.68-.84,1.68-.28,2.51-2.23.56-1.49,1.4-2.42,1.58-4.1.19-2.14.56-4.28.56-6.43,0-.84-.09-1.68-.09-2.51,0-.75-.28-1.58-.19-2.42,0-.84.19-1.68.19-2.51.09-2.51.19-5.12.19-7.64,0-1.49-.56-3.07-.09-4.66.93-2.79,4.38-2.05,6.61-1.96,1.58.09,2.33.65,3.07,2.23.84,1.58.75,3.91.56,5.49-.09,1.68,0,3.35-.09,5.03-.09.93-.19,1.86-.19,2.79v2.98c.09.84.37,1.77.37,2.61,0,.93-.09,1.86-.09,2.7v.05Z"/>
      <path class="st0" d="M183.37,141.42c-.09.28-.09.56-.09.84,0,.84.28,1.4.09,2.33-.46,2.42-2.79,2.61-4,2.61-2.98.09-3.91,1.02-6.52-1.3-1.12-.93-1.4-2.51-2.51-3.26-1.86-1.21-1.68-1.77-2.33-3.54-.28-.84-2.51-3.45-3.17-4.28-1.12-1.4-2.33-3.35-3.35-4.84-.47-.65-.75-1.49-1.21-2.23-.47-.65-.84-1.4-1.3-2.14-.93-1.3-1.68-2.61-2.89-3.72-1.49-1.58-2.24-2.98-3.17-4.94-.19-.28-.37-.56-.56-.75,0,.84.09,2.42-.09,3.26-.19.56-.56,1.12-.56,1.68,0,1.58.47,3.45.47,4.94,0,.84.28,1.68.28,2.51,0,1.3.09,3.26-.84,4.38.28.56.37,1.02.37,1.4s-.09.65,0,1.02c.47,1.49.19,6.8-.19,8.75-.65,3.35-3.35,3.17-6.15,2.89-1.68-.09-3.45-.37-3.91-2.24-.47-1.77.28-1.86.28-3.07,0-.93-.47-1.77-.47-2.7s.47-1.86.47-2.79-.19-1.86-.19-2.79-.37-1.68-.37-2.61c0-1.12.65-1.86.65-2.89,0-.93-.65-1.77-.65-2.79,0-.93.46-1.77.46-2.7,0-1.3.09-1.3.09-2.61,0-.93-.47-1.68-.47-2.61,0-.84-.09-1.68-.09-2.51s.37-1.68.37-2.51c0-.93-.09-1.77-.09-2.61,0-.75-.37-1.4-.37-2.14,0-3.35.37-4.28,4-5.12,2.14-.56,2.23.19,3.91.19.84.09,1.86.37,2.7.37,1.49.09,2.24.19,3.54.84,2.33,1.02,2.24,2.33,3.35,4.1.65.93,1.21,2.05,2.05,2.89.93,1.02,1.49,2.24,2.23,3.35.56.75,1.12,1.58,1.68,2.33.65,1.02,1.02,2.05,1.96,2.89,1.4,1.21,1.4,1.96,2.33,3.35.75.93,1.21,1.96,2.14,2.79.75.65,1.02,1.02,1.4,1.77.09-.56.19-1.12.19-1.58.09-.93.19-1.96.19-2.89-.09-.93-.28-1.86-.28-2.79,0-1.58-.37-2.51-.09-4.1.09-.37.19-.65.19-1.02,0-.84-.19-1.68-.19-2.51,0-2.14.09-4.19.09-6.24.09-3.17,2.51-3.54,5.12-3.35,3.63.37,6.24,1.3,5.68,5.59-.09.37-.19.65-.19,1.02v2.7c0,1.49.28,1.49.28,2.98,0,.93-.37,1.86-.37,2.79,0,1.4.19,1.4.19,2.79v2.61c0,1.49.09,1.49.09,2.98v2.89c0,.93-.47,1.86-.47,2.89,0,1.4.28,1.4.28,2.89v2.42c0,1.3.28,1.3.28,2.51,0,.84-.09,1.3-.28,1.68v-.05Z"/>
      <path class="st0" d="M228.07,111.25c-2.14.56-2.98.84-5.21.47-1.96-.37-2.42.19-4.19.28-1.4,0-2.79.28-4.19.19-.37,0-.28.09-.28.37,0,.47.09.93.09,1.4-.09,1.02-.37,1.96-.37,2.89v2.89c0,1.4-.19,2.7.09,4,.47,1.77.28,2.14,0,3.82-.19,1.02.28,2.14.28,3.17.09,1.3.28,2.61,0,3.91-.19,1.12,0,2.33,0,3.45-.09,1.68.37,2.23-.19,4-.19.37-.37.74-.28,1.12l.09.65c.56,2.79-1.96,2.89-3.82,3.26-1.12.19-1.77-.19-2.79-.28-1.3-.19-2.61-.19-3.17-1.68-.65-1.58-.19-4.38-.09-6.15,0-.93.28-1.86.37-2.79,0-.84.09-1.77.09-2.7,0-.84-.37-1.77-.47-2.61-.09-.84-.46-1.49-.46-2.33,0-1.02.37-3.54.56-4.66.37-1.58-.19-2.42-.19-3.91v-2.89c0-1.21-.28-2.42-.09-3.63.09-.84.47-1.3-.56-1.58-.56-.19-1.86.37-2.61.28-1.02,0-1.96-.37-2.98-.37l-2.61-.09c-1.58,0-3.17.28-4.66,0-1.68-.28-3.17-1.12-3.17-3.35,0-.74-.09-1.49-.09-2.23.19-2.98,2.89-3.91,5.22-3.73,1.21.09,2.51.28,3.72.09,1.02-.09,2.05-.19,3.17-.19,1.68,0,3.07-.28,4.75.09,1.77.37,2.51-.28,4.19-.28,1.02,0,1.96.28,2.98.19,1.02,0,2.05-.09,3.07-.19h3.07c.84,0,1.77.28,2.61.28.93,0,1.77-.09,2.7-.09.84,0,1.77-.37,2.61-.37.93,0,1.77-.09,2.7.09,1.21.19,2.79,1.4,2.79,2.98,0,.56,0,1.12.09,1.77,0,2.05-.37,3.91-2.79,4.47h.02Z"/>
      <path class="st0" d="M274.26,147.01c-1.02.19-2.14.37-3.26.19-1.12-.19-1.02-.19-2.14-.09-2.42.28-3.17-1.4-4.47-2.89-.56-.75-1.12-1.58-1.68-2.33-1.49-1.86-3.26-3.63-4.28-5.77-.56-1.02-1.58-1.77-2.24-2.7-.37-.37-1.12-1.77-1.68-1.77-1.49-.09-2.89.56-4.56.28-1.4-.28-2.79-.56-4.19-.19-.84.19-.56.75-.47,1.3.09.28.19.65.19.93-.09,1.4.19,1.4.19,2.79,0,.74.09,1.49.09,2.23-.09.75-.09,1.58-.37,2.33-.37,1.02.09,2.14,0,3.07-.37,3.54-4.19,2.79-6.52,2.79-2.98,0-3.35-2.14-3.73-4.28-.37-1.4-.19-2.14.19-3.54.19-1.3-.28-2.61-.28-3.91,0-.93.37-1.86.37-2.79-.09-1.4.09-2.7-.19-4-.37-1.86,0-2.79,0-4.56-.09-.93-.19-1.86-.19-2.79s-.28-1.96-.28-2.89c0-2.05.28-4.19.56-6.24.09-1.02-.84-.93-.19-2.98.28-.93-1.96-2.51.28-5.12,1.4-1.68,3.07-.28,4.56-.74.84-.28,1.58-.65,2.51-.65,1.58-.09,3.17-.19,4.75.19,1.58.47,2.51-.09,4,0,.84,0,1.68.28,2.51.28,2.14,0,4.38-.75,6.52-.19.84.19,1.4.09,2.33,0,.84-.09,1.86-.09,3.45.65,1.49.65,2.89,1.3,4.19,2.23,1.58,1.12,2.42,1.21,3.45,3.17.56.93,1.58,2.61,1.86,3.54.47,1.77.19,5.68-.19,7.45-.93,3.45-.93,4.75-3.45,7.54-1.77,2.05-2.51,1.49-4.38,2.33-.09.09-.47.19-.84.37-.19.09-.37-.09-.37,0-.09.19,4.1,4.94,4.38,5.22.75.93,1.02,2.23,1.86,3.17.74.84,1.49,1.49,2.05,2.51.37.65.74,1.3,1.21,1.86.65.84,1.12,1.68.37,2.79-.56.84-1.4,1.12-1.96,1.21h.04ZM261.23,112.83c-.75,0-1.49.09-2.33.09s-1.77-.28-2.61-.28h-2.7c-.93,0-7.17,0-7.73.37-.84.56-.37,3.07-.28,3.91.09.93,0,1.96.09,2.89v1.86c1.21,0,2.42-.09,3.63,0,1.77.09,3.63.28,5.4.28.84,0,1.77.09,2.61,0,1.12-.09,6.15-.74,6.98-1.58.37-.37.46-1.68.65-2.14.19-.93.56-2.24,0-3.07-.75-1.12-2.42-2.33-3.72-2.33h0Z"/>
      <path class="st0" d="M321.01,110.13c-1.49,1.4-2.89,4-3.82,5.77-.74,1.4-1.21,2.14-2.23,3.26-.65.65-1.12,1.4-1.68,2.14-.28.47-.56.93-.75,1.49-1.02,2.42-2.89,4.28-4.28,6.52-1.86,2.89.09,6.61-.47,9.87-.19.68-.19,1.36,0,2.05.65,3.07-1.3,6.15-5.03,6.15-2.61-.09-4.75-.65-5.31-3.45-.28-1.77-.56-3.54-.19-5.31.46-1.86-.56-2.05.28-4.38.37-.93.65-1.49.19-2.51-.28-.75-.65-1.49-1.12-2.14-.75-.84-1.3-1.58-1.68-2.7-.56-1.12-1.49-2.05-2.24-3.07-.65-.93-1.02-2.14-1.77-2.98-.93-1.21-1.68-2.51-2.51-3.73-.74-1.12-1.49-2.14-2.05-3.35-.56-1.12-1.4-2.05-2.05-3.07-.47-.74-.75-1.49-1.21-2.23-.37-.75-.84-1.4-1.21-2.05-2.51-4.66,7.54-5.59,10.52-2.23.75.84,1.21,1.96,1.86,2.89.93,1.4,1.77,2.89,2.51,4.38.37.56.65,1.12,1.12,1.68.84,1.02,1.21,1.49,1.58,2.7.47,1.12,1.3,1.96,1.96,2.89.46.56.75,1.12,1.12,1.68.09-.09.19-.28.28-.47l.19-.19c0-.09.09-.19.09-.28.93-1.3,1.49-2.7,2.7-3.73,1.3-1.12.93-2.05,1.86-3.35.56-.74,1.21-1.4,1.68-2.23.84-1.12,1.77-2.51,2.7-3.54.65-.75.84-1.02,1.12-1.86.65-2.33,4.47-2.7,6.24-2.33.75.19,1.77.37,2.42.56,2.14.65,2.14,2.89,1.3,4.28-.65.93-1.3,2.05-2.14,2.89l.02-.02Z"/>
    </g>
  </g>
</svg>